<?xml version="1.0" encoding="UTF-8"?> <svg xmlns="http://www.w3.org/2000/svg" width="501" height="500" viewBox="0 0 501 500"><g fill="none" fill-rule="evenodd" transform="translate(.636)"><rect width="500" height="500" fill="#539E43"></rect><g fill="#FFF" transform="translate(78.125 60.547)"><path d="M186.31167,4.02153258 C233.255801,30.5682744 280.216132,57.0744868 327.152163,83.6374404 C335.980511,88.6144479 341.884975,98.4468747 341.79588,108.627854 L341.79588,268.346023 C341.860676,278.948507 335.373056,289.016004 326.058744,293.87953 C279.268502,320.280365 232.502557,346.713625 185.720415,373.114462 C176.187419,378.569716 163.779135,378.148209 154.545817,372.247133 C140.517654,364.108834 126.465193,356.011064 112.437029,347.880871 C109.569841,346.170532 106.33818,344.808745 104.31333,342.02843 C106.103297,339.612878 109.302561,339.312961 111.902469,338.259197 C117.758336,336.394846 123.136339,333.403778 128.514341,330.501874 C129.875041,329.569699 131.535418,329.926357 132.839422,330.761263 C144.834635,337.64315 156.724556,344.727686 168.760268,351.544726 C171.327778,353.028102 173.927685,351.058374 176.122624,349.834387 C222.03813,323.863162 268.010334,297.989209 313.917742,272.009878 C315.618615,271.191185 316.558147,269.383574 316.420456,267.519223 C316.452854,214.831034 316.428556,162.134738 316.436654,109.446548 C316.63104,107.330914 315.408031,105.385504 313.496572,104.518175 C266.868318,78.2389274 220.264361,51.9191501 173.644206,25.6317962 C171.97573,24.4969737 169.821289,24.4888679 168.152813,25.6236904 C121.532657,51.9191501 74.9368003,78.263245 28.3166452,104.542493 C26.4132859,105.409822 25.1335804,107.322808 25.3603636,109.446548 C25.3684631,162.134738 25.3603636,214.831034 25.3603636,267.527328 C25.1983756,269.391681 26.2027015,271.158761 27.8954763,271.961243 C40.336157,279.02146 52.7930365,286.033042 65.2418166,293.068942 C72.2558984,296.84628 80.8655622,299.091608 88.5923912,296.19781 C95.4120873,293.749836 100.190734,286.786889 100.061144,279.540236 C100.125939,227.16007 100.028746,174.771797 100.10974,122.399736 C99.9396527,120.07335 102.14269,118.152258 104.402423,118.371116 C110.379781,118.330587 116.365239,118.290058 122.342597,118.387328 C124.837213,118.330587 126.554286,120.835302 126.246509,123.1779 C126.222211,175.890408 126.311304,228.602916 126.206012,281.315423 C126.222211,295.362904 120.455437,310.650586 107.472096,317.524368 C91.4757782,325.816679 71.7051391,324.057703 55.9032067,316.105839 C42.2233177,309.272587 29.1670824,301.207241 15.7301753,293.887635 C6.39156536,289.048428 -0.0636576394,278.940401 0.00113757287,268.346023 L0.00113757287,108.627854 C-0.0960552449,98.2361219 6.0432911,88.2253659 15.1470184,83.3213113 C61.9291615,56.8961576 108.703205,30.4547922 155.477249,4.02153258 C164.815858,-1.32834516 176.98116,-1.35266278 186.31167,4.02153258 Z"></path><path d="M194.947542,115.752126 C215.253857,114.444772 236.995077,114.977397 255.269954,124.992377 C269.417467,132.66703 277.261074,148.774926 277.510972,164.511597 C277.11597,166.63403 274.899124,167.804193 272.875747,167.658931 C266.982966,167.650861 261.090185,167.739632 255.197404,167.618581 C252.698413,167.715422 251.247386,165.407377 250.932996,163.196173 C249.240132,155.66678 245.13695,148.21002 238.059163,144.578479 C227.192584,139.131171 214.592834,139.405554 202.742781,139.518535 C194.093049,139.97853 184.790354,140.729047 177.462668,145.821274 C171.835908,149.678775 170.126921,157.466411 172.134174,163.736868 C174.028571,168.239978 179.220023,169.692593 183.468307,171.032229 C207.942294,177.439878 233.875369,176.802341 257.881804,185.235583 C267.821337,188.67344 277.543217,195.355473 280.945069,205.773956 C285.394885,219.735208 283.44406,236.42415 273.520648,247.633502 C265.475511,256.857613 253.754438,261.877208 242.06561,264.604898 C226.515438,268.075035 210.376794,268.163806 194.584786,266.62242 C179.735943,264.927701 164.282508,261.021778 152.819394,250.893817 C143.016903,242.371805 138.228513,229.096511 138.704128,216.28121 C138.816985,214.118427 140.969342,212.609322 143.041086,212.786863 C148.974173,212.738442 154.907261,212.722302 160.84035,212.794934 C163.21036,212.625461 164.967714,214.675264 165.088633,216.910678 C166.184964,224.084986 168.877426,231.614379 175.124902,235.867314 C187.184548,243.654949 202.315534,243.122324 216.124474,243.340216 C227.563402,242.8318 240.40499,242.678468 249.739929,235.108726 C254.66536,230.791228 256.124448,223.568501 254.79434,217.354532 C253.351374,212.108976 247.869718,209.663739 243.161941,208.065861 C219.002344,200.415419 192.779063,203.191529 168.853242,194.540394 C159.139423,191.102537 149.748055,184.606116 146.015691,174.615347 C140.808117,160.476553 143.19425,142.988672 154.157563,132.158615 C164.846795,121.385047 180.276049,117.237022 194.947542,115.752126 L194.947542,115.752126 L194.947542,115.752126 Z"></path></g></g></svg> 